<svg id="Layer_1" data-name="Layer 1" xmlns="http://www.w3.org/2000/svg" viewBox="0 0 380 380"><defs><style>.cls-1{fill:#a180a6;}</style></defs><path class="cls-1" d="M373.29,51H74.71A40.71,40.71,0,0,0,34,91.71V390.29A40.71,40.71,0,0,0,74.71,431H191.13V301.81H137.69V241h53.44V194.65c0-52.71,31.39-81.83,79.45-81.83,23,0,47.1,4.1,47.1,4.1v51.74H291.15c-26.13,0-34.28,16.22-34.28,32.86V241h58.34l-9.33,60.81h-49V431H373.29A40.71,40.71,0,0,0,414,390.29V91.71A40.71,40.71,0,0,0,373.29,51Z" transform="translate(-34 -51)"/></svg>