<svg id="Layer_1" data-name="Layer 1" xmlns="http://www.w3.org/2000/svg" viewBox="0 0 394 394"><defs><style>.cls-1{fill:#a180a6;}</style></defs><path class="cls-1" d="M224,209.09A46.91,46.91,0,1,0,270.93,256,46.91,46.91,0,0,0,224,209.09ZM333.68,173a47.47,47.47,0,0,0-26.75-26.74c-18.47-7.29-62.44-5.66-82.93-5.66s-64.42-1.7-82.94,5.66A47.47,47.47,0,0,0,114.31,173c-7.28,18.47-5.65,62.49-5.65,83s-1.63,64.44,5.69,83a47.48,47.48,0,0,0,26.74,26.74c18.47,7.3,62.44,5.66,82.95,5.66s64.41,1.7,82.93-5.66A47.45,47.45,0,0,0,333.71,339c7.35-18.47,5.66-62.49,5.66-83s1.69-64.43-5.66-83ZM224,328.12a72,72,0,1,1,.18,0Zm75.09-130.43a16.83,16.83,0,1,1,16.82-16.84h0a16.8,16.8,0,0,1-16.72,16.87h-.07ZM378.79,59H69.21A42.21,42.21,0,0,0,27,101.21V410.79A42.21,42.21,0,0,0,69.21,453H378.79A42.21,42.21,0,0,0,421,410.79V101.21A42.21,42.21,0,0,0,378.79,59ZM363.73,314c-1.14,22.55-6.28,42.52-22.73,58.93s-36.41,21.66-58.93,22.73C258.84,397,189.21,397,166,395.7c-22.54-1.13-42.44-6.29-58.92-22.73S85.4,336.54,84.32,314C83,290.81,83,221.16,84.32,198c1.14-22.55,6.22-42.52,22.74-58.93s36.47-21.6,58.92-22.67c23.23-1.31,92.86-1.31,116.09,0,22.54,1.13,42.51,6.29,58.93,22.73s21.66,36.43,22.73,59C365,221.21,365,290.79,363.73,314Z" transform="translate(-27 -59)"/></svg>