<svg id="Layer_1" data-name="Layer 1" xmlns="http://www.w3.org/2000/svg" viewBox="0 0 375 375"><defs><style>.cls-1{fill:#a180a6;}</style></defs><path class="cls-1" d="M411.5,91V412a27,27,0,0,1-26.79,27H63.2a26.9,26.9,0,0,1-26.7-27V91A26.9,26.9,0,0,1,63.2,64H384.71A27,27,0,0,1,411.5,91ZM358.18,385.43v-98.1c0-48.22-10.46-85.3-66.71-85.3-27,0-45.2,14.82-52.65,28.88h-.76V206.47H184.74v179h55.58V296.87c0-23.36,4.44-46,33.4-46,28.46,0,28.88,26.71,28.88,47.46v87.06Zm-208.26,0v-179H94.26v179h55.66ZM122.05,182A32.23,32.23,0,1,0,89.82,149.8,32.17,32.17,0,0,0,122.05,182Z" transform="translate(-36.5 -64)"/></svg>